<svg width="43" height="40" viewBox="0 0 43 40" fill="none" xmlns="http://www.w3.org/2000/svg">
<path d="M0 10.5263C0 4.71279 4.47715 0 10 0H33C38.5228 0 43 4.71279 43 10.5263V29.4737C43 35.2872 38.5228 40 33 40H10C4.47715 40 0 35.2872 0 29.4737V10.5263Z" fill="#292A29"/>
<path d="M23.1136 29.4737V11.1005H25.2273V19.2823H34.5341V11.1005H36.6477V29.4737H34.5341V21.256H25.2273V29.4737H23.1136Z" fill="white"/>
<path d="M11.7045 29.4737H5.51705V11.1005H11.7557C13.5114 11.1005 15.0227 11.4683 16.2898 12.2039C17.5568 12.9336 18.5313 13.9833 19.2131 15.3529C19.9006 16.7225 20.2443 18.3612 20.2443 20.2691C20.2443 22.183 19.9006 23.8278 19.2131 25.2034C18.5313 26.5789 17.5511 27.6346 16.2727 28.3702C15 29.1059 13.4773 29.4737 11.7045 29.4737ZM9.20739 26.1453H11.5511C12.642 26.1453 13.5597 25.942 14.304 25.5353C15.054 25.1226 15.6165 24.4856 15.9915 23.6244C16.3722 22.7572 16.5625 21.6388 16.5625 20.2691C16.5625 18.9115 16.3722 17.802 15.9915 16.9408C15.6165 16.0795 15.0568 15.4456 14.3125 15.0389C13.5682 14.6322 12.6506 14.4288 11.5597 14.4288H9.20739V26.1453Z" fill="#FCB614"/>
</svg>
